<svg width="550" height="452" viewBox="0 0 550 452" fill="none" xmlns="http://www.w3.org/2000/svg">
<g clip-path="url(#clip0)">
<path d="M351.9 44.5838V388.413C351.9 392.51 350.274 396.438 347.382 399.334C344.49 402.231 340.567 403.857 336.478 403.857H197.126C193.036 403.857 189.114 402.231 186.222 399.334C183.329 396.438 181.704 392.51 181.703 388.413V44.5838C181.703 42.5549 182.102 40.5459 182.877 38.6714C183.652 36.7969 184.788 35.0937 186.22 33.6591C187.652 32.2245 189.353 31.0865 191.224 30.3102C193.095 29.5338 195.101 29.1343 197.126 29.1345H217.979V31.8174C217.98 35.191 219.318 38.4262 221.699 40.8117C224.081 43.1971 227.31 44.5377 230.678 44.5387H301.547C304.915 44.5387 308.145 43.1984 310.527 40.8127C312.908 38.427 314.246 35.1913 314.246 31.8174V29.1345H336.478C338.503 29.1343 340.509 29.5338 342.38 30.3102C344.251 31.0865 345.951 32.2245 347.384 33.6591C348.816 35.0937 349.952 36.7969 350.727 38.6714C351.502 40.5459 351.901 42.5549 351.9 44.5838Z" fill="#F2F2F2"/>
<path d="M372.895 98.3689H374.276C374.618 98.3689 374.946 98.505 375.188 98.7472C375.429 98.9895 375.565 99.318 375.565 99.6606V144.998C375.565 145.34 375.429 145.669 375.188 145.911C374.946 146.153 374.618 146.289 374.276 146.289H372.895" stroke="#3F3D56" stroke-miterlimit="10"/>
<path d="M178.714 76.6032H177.715C177.491 76.6032 177.276 76.5139 177.117 76.355C176.959 76.1961 176.87 75.9806 176.87 75.7559V61.6747C176.87 61.45 176.959 61.2345 177.117 61.0756C177.276 60.9167 177.491 60.8274 177.715 60.8274H178.714" stroke="#3F3D56" stroke-miterlimit="10"/>
<path d="M178.557 117.17H177.705C177.452 117.17 177.209 117.069 177.03 116.89C176.852 116.711 176.751 116.468 176.751 116.214V90.6653C176.751 90.5399 176.776 90.4157 176.824 90.2998C176.872 90.1839 176.942 90.0787 177.03 89.99C177.119 89.9013 177.224 89.8309 177.34 89.7829C177.456 89.7349 177.58 89.7102 177.705 89.7102H178.714" stroke="#3F3D56" stroke-miterlimit="10"/>
<path d="M178.557 154.474H177.718C177.477 154.474 177.246 154.378 177.076 154.208C176.906 154.037 176.81 153.806 176.81 153.565V127.686C176.81 127.445 176.906 127.214 177.076 127.044C177.246 126.873 177.477 126.777 177.718 126.777H178.557" stroke="#3F3D56" stroke-miterlimit="10"/>
<path d="M352.811 8.69287H198.798C187.706 8.69287 178.714 17.7002 178.714 28.8113V383.894C178.714 395.005 187.706 404.012 198.798 404.012H352.811C363.903 404.012 372.895 395.005 372.895 383.894V28.8113C372.895 17.7002 363.903 8.69287 352.811 8.69287Z" stroke="#3F3D56" stroke-miterlimit="10"/>
<path d="M281.634 22.1892H257.378C256.588 22.1892 255.948 22.8307 255.948 23.6219V26.2721C255.948 27.0634 256.588 27.7048 257.378 27.7048H281.634C282.424 27.7048 283.064 27.0634 283.064 26.2721V23.6219C283.064 22.8307 282.424 22.1892 281.634 22.1892Z" fill="#F2F2F2"/>
<path d="M290.287 28.0755C292.012 28.0755 293.41 26.6749 293.41 24.9471C293.41 23.2193 292.012 21.8186 290.287 21.8186C288.562 21.8186 287.164 23.2193 287.164 24.9471C287.164 26.6749 288.562 28.0755 290.287 28.0755Z" fill="#F2F2F2"/>
<path d="M282.759 20.4983H258.503C257.713 20.4983 257.073 21.1397 257.073 21.931V24.5812C257.073 25.3724 257.713 26.0139 258.503 26.0139H282.759C283.549 26.0139 284.189 25.3724 284.189 24.5812V21.931C284.189 21.1397 283.549 20.4983 282.759 20.4983Z" stroke="#3F3D56" stroke-miterlimit="10"/>
<path d="M291.413 26.3846C293.137 26.3846 294.536 24.984 294.536 23.2562C294.536 21.5283 293.137 20.1277 291.413 20.1277C289.688 20.1277 288.289 21.5283 288.289 23.2562C288.289 24.984 289.688 26.3846 291.413 26.3846Z" stroke="#3F3D56" stroke-miterlimit="10"/>
<path d="M360.903 34.4383V378.267C360.902 382.364 359.277 386.293 356.385 389.189C353.492 392.085 349.57 393.712 345.48 393.711H206.129C202.039 393.712 198.117 392.085 195.225 389.189C192.332 386.293 190.707 382.364 190.706 378.267V34.4383C190.706 32.4094 191.105 30.4004 191.88 28.5259C192.655 26.6514 193.791 24.9482 195.223 23.5136C196.655 22.079 198.355 20.941 200.227 20.1647C202.098 19.3883 204.104 18.9888 206.129 18.989H226.982V21.6719C226.983 25.0455 228.321 28.2807 230.702 30.6661C233.084 33.0516 236.313 34.3922 239.681 34.3932H310.55C313.918 34.3932 317.148 33.0529 319.53 30.6672C321.911 28.2815 323.249 25.0458 323.249 21.6719V18.989H345.48C347.506 18.9888 349.511 19.3883 351.383 20.1647C353.254 20.941 354.954 22.079 356.386 23.5136C357.819 24.9482 358.955 26.6514 359.73 28.5259C360.505 30.4004 360.903 32.4094 360.903 34.4383V34.4383Z" stroke="#3F3D56" stroke-miterlimit="10"/>
<path d="M213.016 51.8489H195.573V54.1034H213.016V51.8489Z" stroke="#3F3D56" stroke-miterlimit="10"/>
<path d="M213.016 55.7944H195.573V58.049H213.016V55.7944Z" stroke="#3F3D56" stroke-miterlimit="10"/>
<path d="M213.016 59.7397H195.573V61.9943H213.016V59.7397Z" stroke="#3F3D56" stroke-miterlimit="10"/>
<path d="M352.933 57.4852H352.416L352.222 57.3229C352.869 56.5499 353.223 55.5736 353.224 54.5651C353.218 53.7369 352.968 52.9289 352.504 52.2432C352.04 51.5575 351.384 51.0249 350.619 50.7125C349.853 50.4002 349.012 50.3221 348.202 50.4882C347.392 50.6544 346.649 51.0572 346.068 51.6459C345.486 52.2346 345.092 52.9828 344.935 53.7958C344.777 54.6089 344.864 55.4504 345.184 56.2141C345.504 56.9778 346.042 57.6294 346.732 58.0866C347.421 58.5439 348.23 58.7862 349.057 58.783C350.061 58.7768 351.031 58.4212 351.802 57.7773L351.996 57.9395V58.4586L355.226 61.7031L356.195 60.7298L352.933 57.4852ZM349.057 57.4852C348.48 57.4868 347.916 57.3169 347.435 56.9971C346.955 56.6772 346.58 56.2217 346.358 55.6883C346.136 55.1549 346.077 54.5675 346.189 54.0005C346.3 53.4335 346.577 52.9124 346.985 52.5032C347.392 52.094 347.911 51.815 348.477 51.7017C349.043 51.5883 349.629 51.6457 350.162 51.8664C350.696 52.0872 351.151 52.4615 351.472 52.9419C351.793 53.4223 351.964 53.9872 351.964 54.5651C351.966 54.9484 351.892 55.3284 351.747 55.6831C351.602 56.0379 351.388 56.3603 351.118 56.6317C350.848 56.9032 350.526 57.1184 350.173 57.2649C349.819 57.4114 349.44 57.4862 349.057 57.4852V57.4852Z" stroke="#3F3D56" stroke-miterlimit="10"/>
<path d="M447.412 95.2484C447.705 89.6323 450.139 84.3432 454.211 80.4718C458.283 76.6005 463.683 74.4422 469.297 74.4421C469.963 74.4421 470.621 74.4769 471.272 74.5352C473.832 70.1232 477.503 66.4612 481.918 63.915C486.333 61.3688 491.338 60.0276 496.433 60.0251C501.527 60.0227 506.533 61.3593 510.951 63.9013C515.368 66.4433 519.043 70.1018 521.607 74.5113C522.156 74.47 522.709 74.4421 523.269 74.4421C528.883 74.4422 534.283 76.6005 538.355 80.4718C542.427 84.3432 544.861 89.6323 545.154 95.2484" fill="#F2F2F2"/>
<path d="M451.976 93.5597C452.27 87.9436 454.704 82.6545 458.776 78.7831C462.848 74.9118 468.248 72.7535 473.862 72.7534C474.528 72.7534 475.186 72.7882 475.837 72.8465C478.397 68.4344 482.068 64.7725 486.483 62.2263C490.898 59.6801 495.903 58.3388 500.997 58.3364C506.092 58.334 511.098 59.6705 515.515 62.2125C519.933 64.7545 523.607 68.413 526.172 72.8226C526.721 72.7813 527.274 72.7534 527.833 72.7534C533.447 72.7535 538.847 74.9118 542.92 78.7831C546.992 82.6545 549.426 87.9436 549.719 93.5597" stroke="#3F3D56" stroke-miterlimit="10"/>
<path d="M388.894 219.812C389.187 214.196 391.621 208.907 395.693 205.035C399.765 201.164 405.165 199.006 410.779 199.006C411.446 199.006 412.103 199.04 412.754 199.099C415.314 194.687 418.985 191.025 423.4 188.478C427.816 185.932 432.82 184.591 437.915 184.589C443.009 184.586 448.015 185.923 452.433 188.465C456.85 191.007 460.525 194.665 463.089 199.075C463.638 199.034 464.191 199.006 464.751 199.006C470.365 199.006 475.765 201.164 479.837 205.035C483.909 208.907 486.343 214.196 486.636 219.812" fill="#F2F2F2"/>
<path d="M393.458 218.123C393.752 212.507 396.186 207.218 400.258 203.347C404.33 199.475 409.73 197.317 415.344 197.317C416.01 197.317 416.668 197.352 417.319 197.41C419.879 192.998 423.55 189.336 427.965 186.79C432.38 184.244 437.385 182.902 442.479 182.9C447.574 182.897 452.58 184.234 456.997 186.776C461.415 189.318 465.089 192.977 467.654 197.386C468.203 197.345 468.756 197.317 469.315 197.317C474.93 197.317 480.33 199.475 484.402 203.347C488.474 207.218 490.908 212.507 491.201 218.123" stroke="#3F3D56" stroke-miterlimit="10"/>
<path d="M22.5938 37.194C22.8872 31.5779 25.321 26.2887 29.3932 22.4174C33.4654 18.5461 38.8654 16.3878 44.4796 16.3877C45.1457 16.3877 45.8034 16.4225 46.4543 16.4807C49.0145 12.0687 52.6854 8.40675 57.1005 5.86057C61.5156 3.31439 66.5203 1.97312 71.6148 1.97071C76.7093 1.96829 81.7153 3.30483 86.1328 5.84682C90.5503 8.38882 94.2247 12.0473 96.789 16.4569C97.3382 16.4156 97.8911 16.3877 98.4508 16.3877C104.065 16.3878 109.465 18.5461 113.537 22.4174C117.609 26.2887 120.043 31.5779 120.337 37.194" fill="#F2F2F2"/>
<path d="M27.1585 35.505C27.4519 29.8889 29.8857 24.5998 33.9579 20.7284C38.0301 16.8571 43.4301 14.6988 49.0443 14.6987C49.7104 14.6987 50.3681 14.7335 51.019 14.7918C53.5792 10.3798 57.2502 6.71778 61.6652 4.17161C66.0803 1.62543 71.0851 0.284155 76.1796 0.281742C81.2741 0.279328 86.28 1.61586 90.6975 4.15785C95.115 6.69985 98.7894 10.3583 101.354 14.7679C101.903 14.7266 102.456 14.6987 103.016 14.6987C108.63 14.6988 114.03 16.8571 118.102 20.7284C122.174 24.5998 124.608 29.8889 124.901 35.505" stroke="#3F3D56" stroke-miterlimit="10"/>
<path d="M323.273 109.345H203.477C199.578 109.345 196.417 112.512 196.417 116.418V176.673C196.417 180.579 199.578 183.745 203.477 183.745H323.273C327.172 183.745 330.333 180.579 330.333 176.673V116.418C330.333 112.512 327.172 109.345 323.273 109.345Z" fill="#F9A826"/>
<path d="M330.588 95.2544H210.792C206.893 95.2544 203.732 98.4207 203.732 102.326V162.582C203.732 166.488 206.893 169.654 210.792 169.654H330.588C334.487 169.654 337.648 166.488 337.648 162.582V102.326C337.648 98.4207 334.487 95.2544 330.588 95.2544Z" stroke="#3F3D56" stroke-miterlimit="10"/>
<path d="M249.572 149.093L261.383 161.286C261.641 161.546 261.949 161.751 262.288 161.888C262.628 162.024 262.992 162.09 263.358 162.081H263.393C263.759 162.09 264.122 162.024 264.462 161.888C264.801 161.751 265.11 161.546 265.367 161.286L277.178 149.093C277.439 148.848 277.647 148.553 277.789 148.225C277.931 147.897 278.005 147.543 278.005 147.185C278.005 146.828 277.931 146.474 277.789 146.146C277.647 145.818 277.439 145.523 277.178 145.278C276.638 144.772 275.926 144.49 275.186 144.49C274.447 144.49 273.734 144.772 273.194 145.278L266.196 152.607V133.712C266.163 132.984 265.852 132.297 265.327 131.794C264.801 131.291 264.102 131.01 263.375 131.01C262.648 131.01 261.949 131.291 261.424 131.794C260.899 132.297 260.587 132.984 260.555 133.712V152.607L253.556 145.278C253.016 144.772 252.304 144.49 251.564 144.49C250.824 144.49 250.112 144.772 249.572 145.278C249.311 145.523 249.103 145.818 248.961 146.146C248.819 146.474 248.746 146.828 248.746 147.185C248.746 147.543 248.819 147.897 248.961 148.225C249.103 148.553 249.311 148.848 249.572 149.093H249.572Z" fill="white"/>
<path d="M218.107 311.127H337.903C341.802 311.127 344.963 307.961 344.963 304.055V243.799C344.963 239.893 341.802 236.727 337.903 236.727H218.107C214.207 236.727 211.047 239.893 211.047 243.799V304.055C211.047 307.961 214.207 311.127 218.107 311.127Z" fill="#F9A826"/>
<path d="M210.792 297.036H330.588C334.487 297.036 337.648 293.87 337.648 289.964V229.708C337.648 225.802 334.487 222.636 330.588 222.636H210.792C206.893 222.636 203.732 225.802 203.732 229.708V289.964C203.732 293.87 206.893 297.036 210.792 297.036Z" stroke="#3F3D56" stroke-miterlimit="10"/>
<path d="M291.808 276.474C292.069 276.23 292.277 275.935 292.419 275.607C292.561 275.279 292.634 274.925 292.634 274.567C292.634 274.21 292.561 273.856 292.419 273.528C292.277 273.2 292.069 272.904 291.808 272.66C291.268 272.154 290.556 271.872 289.816 271.872C289.076 271.872 288.364 272.154 287.824 272.66L280.825 279.989V261.094C280.793 260.366 280.481 259.679 279.956 259.176C279.431 258.673 278.732 258.392 278.005 258.392C277.278 258.392 276.579 258.673 276.053 259.176C275.528 259.679 275.217 260.366 275.184 261.094V279.989L268.186 272.66C267.645 272.154 266.933 271.872 266.194 271.872C265.454 271.872 264.742 272.154 264.202 272.66C263.941 272.904 263.733 273.2 263.591 273.528C263.449 273.856 263.375 274.21 263.375 274.567C263.375 274.925 263.449 275.279 263.591 275.607C263.733 275.935 263.941 276.23 264.202 276.474L276.013 288.668C276.27 288.928 276.578 289.133 276.918 289.269C277.258 289.406 277.621 289.472 277.987 289.462H278.022C278.388 289.472 278.752 289.406 279.092 289.269C279.431 289.133 279.739 288.928 279.997 288.668L291.808 276.474H291.808Z" fill="white"/>
<path d="M122.049 431.237L122.048 431.238C122.048 431.238 121.871 431.336 121.569 431.49C121.732 431.405 121.892 431.321 122.049 431.237Z" fill="url(#paint0_linear)"/>
<path opacity="0.1" d="M128.8 431.486C128.8 431.486 126.962 434.726 120.299 431.87L128.8 431.486Z" fill="black"/>
</g>
<defs>
<linearGradient id="paint0_linear" x1="121.809" y1="431.49" x2="121.809" y2="431.237" gradientUnits="userSpaceOnUse">
<stop stop-color="#808080" stop-opacity="0.25"/>
<stop offset="0.53514" stop-color="#808080" stop-opacity="0.12"/>
<stop offset="1" stop-color="#808080" stop-opacity="0.1"/>
</linearGradient>
<clipPath id="clip0">
<rect width="550" height="452" fill="white"/>
</clipPath>
</defs>
</svg>
